{"asset":{"version":"2.0","generator":"THREE.GLTFExporter"},"scenes":[{"nodes":[0],"name":"AuxScene"}],"scene":0,"nodes":[{"mesh":0}],"bufferViews":[{"buffer":0,"byteOffset":0,"byteLength":40284,"target":34962,"byteStride":12},{"buffer":0,"byteOffset":40284,"byteLength":40284,"target":34962,"byteStride":12}],"buffers":[{"byteLength":80568,"uri":"data:application/octet-stream;base64,"}],"accessors":[{"bufferView":0,"componentType":5126,"count":3357,"max":[100.81192016601562,133.9959716796875,100.61190795898438],"min":[-100.78809356689453,0.19596900045871735,-100.98809814453125],"type":"VEC3"},{"bufferView":1,"componentType":5126,"count":3357,"max":[0.9906796813011169,1,0.9855232238769531],"min":[-0.9370646476745605,0.043083082884550095,-0.9203560948371887],"type":"VEC3"}],"materials":[{"pbrMetallicRoughness":{"baseColorFactor":[0.5019607843137255,0.5019607843137255,0.5019607843137255,1],"metallicFactor":0,"roughnessFactor":1}}],"meshes":[{"primitives":[{"mode":4,"attributes":{"POSITION":0,"NORMAL":1},"material":0}]}]}